<?xml version="1.0" standalone="no"?>
<!DOCTYPE svg PUBLIC "-//W3C//DTD SVG 20010904//EN"
 "http://www.w3.org/TR/2001/REC-SVG-20010904/DTD/svg10.dtd">
<svg version="1.0" xmlns="http://www.w3.org/2000/svg"
 width="640.000000pt" height="640.000000pt" viewBox="0 0 640.000000 640.000000"
 preserveAspectRatio="xMidYMid meet">

<g transform="translate(0.000000,640.000000) scale(0.100000,-0.100000)"
fill="#000000" stroke="none">
<path d="M3100 6031 c-95 -31 -176 -102 -219 -191 -22 -47 -26 -68 -26 -150 0
-81 4 -103 26 -150 127 -269 505 -270 636 -2 39 80 44 192 12 277 -27 72 -102
156 -174 193 -41 21 -67 26 -140 29 -49 1 -101 -1 -115 -6z"/>
<path d="M3086 3629 c-116 -29 -233 -129 -289 -246 -30 -64 -32 -74 -32 -183
0 -109 2 -119 32 -183 43 -89 125 -172 218 -218 67 -33 74 -34 185 -34 111 0
118 1 185 34 93 46 175 129 218 218 30 64 32 74 32 183 0 112 -1 117 -37 190
-46 94 -121 168 -214 212 -58 27 -80 32 -163 34 -53 2 -113 -1 -135 -7z"/>
<path d="M5260 2295 c-74 -21 -151 -76 -194 -138 -102 -151 -82 -335 52 -463
39 -38 141 -84 201 -91 160 -19 322 88 371 246 24 76 25 129 4 202 -53 185
-249 295 -434 244z"/>
<path d="M975 2237 c-119 -40 -196 -121 -231 -241 -46 -164 34 -334 194 -409
56 -26 78 -31 147 -31 66 0 90 4 137 26 75 35 141 98 175 167 25 50 28 67 28
156 0 86 -3 106 -24 145 -69 129 -165 191 -304 197 -50 2 -98 -2 -122 -10z"/>
</g>
</svg>
